<svg width="1435" height="944" viewBox="0 0 1435 944" fill="none" xmlns="http://www.w3.org/2000/svg">
<path d="M80.1396 609.677C51.5432 564.152 75.2514 502.084 128.728 496.563C259.509 483.063 445.936 480.245 394.833 583.486C317.948 738.816 272.099 792.765 147.097 878.726C22.0955 964.687 112.892 742.435 116.933 696.131C118.581 677.243 101.246 643.277 80.1396 609.677Z" fill="#0E72CC"/>
<path d="M952.239 548.705C959.321 515.485 988.886 492.137 1022.8 493.975C1119.84 499.234 1307.85 515.351 1348.41 562.172C1403.65 625.931 1225.67 771.451 1100.67 857.412C975.671 943.373 891.133 885.216 895.173 838.912C898.098 805.388 933.126 638.357 952.239 548.705Z" fill="#FF362B"/>
<path d="M1234.6 78.1422C1235.65 77.9234 1236.53 77.7764 1237.6 77.6361C1256.29 75.1889 1445.53 52.4696 1374.68 146.234C1300.19 244.822 1202.71 370.56 1152.38 293.777C1102.05 216.994 1136.98 167.402 1144.19 130.609C1150.83 96.7528 1223.1 80.5183 1234.6 78.1422Z" fill="#F1FF45" fill-opacity="0.56"/>
</svg>
